<svg xmlns="http://www.w3.org/2000/svg" style="display:none">
  <symbol id="running" viewBox="0 0 24 24">
    <path fill="currentColor" d="M13 3a2 2 0 110 4 2 2 0 010-4zM5.5 20.5l2.5-6 3 1-.5 2.5L9 20.5H5.5zM21 18.5l-1.5-1.5-4 2 .5 1.5L21 18.5zM14 11l3-1 2 2-1 3-3-1-1-3z"/>
  </symbol>
  <symbol id="cycling" viewBox="0 0 24 24">
    <path fill="currentColor" d="M5 16a3 3 0 100 6 3 3 0 000-6zm11-9a3 3 0 100 6 3 3 0 000-6zM6 15l4-5 3 1 3 5"/>
  </symbol>
  <symbol id="photography" viewBox="0 0 24 24">
    <path fill="currentColor" d="M4 7h2l1-2h6l1 2h2a2 2 0 012 2v8a2 2 0 01-2 2H4a2 2 0 01-2-2V9a2 2 0 012-2zM12 10a3 3 0 100 6 3 3 0 000-6z"/>
  </symbol>
  <symbol id="reading" viewBox="0 0 24 24">
    <path fill="currentColor" d="M3 5v14a1 1 0 001 1h14"/>
  </symbol>
  <symbol id="cooking" viewBox="0 0 24 24">
    <path fill="currentColor" d="M7 2v7h3V2H7zm7 0v7h3V2h-3zM4 12h16v2a6 6 0 01-6 6H10a6 6 0 01-6-6v-2z"/>
  </symbol>
  <symbol id="project" viewBox="0 0 24 24">
    <path fill="currentColor" d="M3 7h18v10H3z"/>
  </symbol>
  <symbol id="code" viewBox="0 0 24 24">
    <path fill="currentColor" d="M8.5 16.5L3 12l5.5-4.5M15.5 7.5L21 12l-5.5 4.5"/>
  </symbol>
</svg>
